<svg xmlns="http://www.w3.org/2000/svg" viewBox="-30 -30 300 310" width="100%" height="100%">
  <defs>
    <linearGradient id="sg" x1="0%" y1="0%" x2="0%" y2="100%">
      <stop offset="0%" stop-color="#00F2FE" />
      <stop offset="100%" stop-color="#4FACFE" />
    </linearGradient>
  </defs>
  <rect x="0" y="80" width="20" height="120" rx="10" fill="url(#sg)" />
  <rect x="40" y="20" width="20" height="180" rx="10" fill="url(#sg)" />
  <rect x="80" y="0" width="20" height="200" rx="10" fill="url(#sg)" />
  <rect x="120" y="60" width="20" height="140" rx="10" fill="url(#sg)" />
  <rect x="160" y="20" width="20" height="180" rx="10" fill="url(#sg)" />
  <rect x="200" y="80" width="20" height="120" rx="10" fill="url(#sg)" />
  <g transform="translate(-26.240000, 0)" fill="#FFFFFF">
    <path d="M15.024 255.576C24.624 255.576 29.28 250.776 29.28 245.16C29.28 232.824 9.744 237.096 9.744 230.904C9.744 228.792 11.52 227.064 16.128 227.064C19.104 227.064 22.32 227.928 25.44 229.704L27.84 223.8C24.72 221.832 20.4 220.824 16.176 220.824C6.624 220.824 2.016 225.576 2.016 231.288C2.016 243.768 21.552 239.448 21.552 245.736C21.552 247.8 19.68 249.336 15.072 249.336C11.04 249.336 6.816 247.896 3.984 245.832L1.344 251.688C4.32 253.992 9.696 255.576 15.024 255.576Z" />
    <path d="M60.88 255.576C71.44 255.576 79.264 248.232 79.264 238.2C79.264 228.168 71.44 220.824 60.88 220.824C50.272 220.824 42.496 228.216 42.496 238.2C42.496 248.184 50.272 255.576 60.88 255.576ZM60.88 248.952C54.88 248.952 50.368 244.584 50.368 238.2C50.368 231.816 54.88 227.448 60.88 227.448C66.88 227.448 71.392 231.816 71.392 238.2C71.392 244.584 66.88 248.952 60.88 248.952Z" />
    <path d="M95.12 255H102.8V234.552L119.552 255H125.936V221.4H118.256V241.848L101.552 221.4H95.12Z" />
    <path d="M160.176 255.576C170.736 255.576 178.56 248.232 178.56 238.2C178.56 228.168 170.736 220.824 160.176 220.824C149.568 220.824 141.792 228.216 141.792 238.2C141.792 248.184 149.568 255.576 160.176 255.576ZM160.176 248.952C154.176 248.952 149.664 244.584 149.664 238.2C149.664 231.816 154.176 227.448 160.176 227.448C166.176 227.448 170.688 231.816 170.688 238.2C170.688 244.584 166.176 248.952 160.176 248.952Z" />
    <path d="M194.416 255H202.192V245.64H208.96C209.056 245.64 209.2 245.64 209.344 245.64L215.824 255H224.176L216.688 244.2C221.056 242.328 223.552 238.632 223.552 233.592C223.552 226.056 218.128 221.4 208.768 221.4H194.416ZM202.192 239.448V227.736H208.528C213.28 227.736 215.68 229.896 215.68 233.592C215.68 237.24 213.28 239.448 208.528 239.448Z" />
    <path d="M235.28 255H243.248L246.224 247.8H261.824L264.8 255H272.96L257.936 221.4H250.256ZM248.672 241.896L254.048 229.08 259.376 241.896Z" />
  </g>
</svg>